<?xml version="1.0" encoding="utf-8"?>
<!-- Generator: Adobe Illustrator 24.0.1, SVG Export Plug-In . SVG Version: 6.00 Build 0)  -->
<svg version="1.1" id="Layer_1" xmlns="http://www.w3.org/2000/svg" xmlns:xlink="http://www.w3.org/1999/xlink" x="0px" y="0px"
	 viewBox="0 0 572 432" style="enable-background:new 0 0 572 432;" xml:space="preserve">
<style type="text/css">
	.st0{fill:#FFD45F;}
</style>
<g transform="translate(0.000000,768.000000) scale(0.100000,-0.100000)">
	<path class="st0" d="M1639.1,6996.2c-5.1-5.1-8.7-17.4-8.7-28.3c0-24-20.3-49.4-40-50.9c-34.1-2.9-47.9,1.5-53.8,17.4
		c-8,21.1-21.1,32-45.8,37.8c-15.3,3.6-24,0.7-37.8-13.1c-15.3-15.3-17.4-22.5-13.8-47.9c3.6-25.4,1.5-33.4-12.3-47.9
		c-21.8-23.2-46.5-23.2-81.4,1.5c-24,16-30.5,17.4-45.8,10.9c-29.1-13.1-37.8-40-23.2-71.2c16-33.4,15.3-50.9-2.9-69
		c-13.1-13.1-20.3-14.5-60.3-10.2c-42.9,5.1-47.2,3.6-58.1-11.6c-17.4-24.7-14.5-42.9,10.9-69c42.1-43.6,19.6-97.3-41.4-97.3
		c-26.9,0-31.2-2.2-39.2-21.1c-13.8-34.9-7.3-53.8,25.4-69c35.6-16.7,40-22.5,40-57.4c0-25.4-2.2-28.3-34.1-43.6
		c-29.8-13.8-34.9-19.6-37-39.2c-3.6-38.5,8.7-53,45.8-53c45.8,0,67.6-23.2,61.7-64.7c-0.7-5.8-10.9-19.6-22.5-30.5
		c-26.9-24.7-28.3-55.2-2.9-79.2c17.4-16.7,18.2-16.7,48.7-5.1c27.6,10.9,32,10.9,47.2,0.7c28.3-18.2,36.3-44.3,21.8-69.7
		c-16.7-29.1-15.3-50.9,4.4-69.7c21.8-20.3,37-20.3,66.1,2.2c29.1,21.8,50.1,23.2,69.7,3.6c16-16,17.4-20.3,15.3-62.5
		c-1.5-24.7,1.5-32.7,14.5-42.1c26.9-18.2,55.2-15.3,69.7,8.7c17.4,28.3,31.2,37.8,54.5,37.8c24.7,0,49.4-23.2,49.4-45.8
		c0-24,14.5-40.7,40.7-45.8c27.6-5.1,53.8,16,53.8,44.3c0,26.2,24,47.2,54.5,47.2c21.8,0,28.3-3.6,40.7-25.4
		c20.3-34.1,35.6-41.4,63.9-32c25.4,8.7,33.4,26.9,26.2,61.7c-3.6,21.1-1.5,28.3,17.4,46.5c26.2,26.9,39.2,26.9,71.2,2.9
		c30.5-23.2,57.4-21.1,77.7,6.5l14.5,20.3l-17.4,32c-15.3,28.3-16,34.1-8,49.4c15.3,28.3,40,38.5,69,28.3
		c34.9-12.3,45-10.9,61.7,10.2c21.1,26.2,19.6,36.3-10.2,69c-13.8,16-25.4,36.3-25.4,45c0,26.2,30.5,50.1,68.3,53.8
		c29.8,3.6,33.4,6.5,41.4,29.1c10.2,32,5.8,42.9-27.6,58.1c-58.1,27.6-61,80.6-5.1,103.9c37,16,43.6,27.6,34.1,60.3
		c-5.8,20.3-10.2,24-42.1,29.1c-41.4,6.5-69,28.3-69,53.8c0,10.2,10.9,28.3,25.4,43.6c29.8,31.2,31.2,45,8,72.6
		c-17.4,19.6-18.2,19.6-52.3,10.9c-31.2-8.7-36.3-8-53,4.4c-23.2,17.4-27.6,45.8-10.9,79.9c10.9,23.2,10.9,28.3,2.2,45
		c-15.3,26.2-47.9,27.6-82.8,4.4c-15.3-10.9-29.8-18.9-33.4-18.9c-2.9,0-16,8.7-28.3,18.9c-20.3,17.4-22.5,22.5-20.3,55.9
		c2.2,32,0,37.8-17.4,50.1c-25.4,19.6-53,13.1-67.6-16.7c-26.2-50.1-83.5-43.6-99.5,10.9c-4.4,16-11.6,34.1-15.3,39.2
		C1699.4,7007.1,1650.7,7007.8,1639.1,6996.2z M1690.7,6792.8c29.1-34.9,31.2-52.3,12.3-110.4c-28.3-88.6-58.8-120.6-116.2-120.6
		c-24,0-40,6.5-78.5,33.4c-66.8,46.5-81.4,65.4-81.4,102.4c0,39.2,23.2,67.6,74.1,89.4C1598.4,6829.8,1658,6831.3,1690.7,6792.8z
		 M1930.4,6725.9c51.6-21.1,128.6-130,128.6-180.9c0-24-5.1-33.4-29.1-57.4l-29.1-29.1l-71.2,2.9c-79.9,2.9-101,11.6-124.9,51.6
		c-18.9,30.5-18.2,57.4,3.6,121.3c23.2,68.3,34.9,85,63.9,93.7C1904.3,6737.6,1904.3,6737.6,1930.4,6725.9z M1405.9,6526.9
		c130-82.8,132.2-156.2,5.8-240.5c-51.6-34.9-79.9-37.8-116.2-13.1c-29.8,19.6-41.4,54.5-42.1,122.8
		c-0.7,77.7,10.9,120.6,37.8,137.3C1325.3,6553.8,1366.7,6551.6,1405.9,6526.9z M1708.9,6445.5c34.9-32.7,10.2-94.4-37.8-94.4
		c-38.5,0-63.2,40-47.2,74.8C1639.1,6460.1,1682.7,6469.5,1708.9,6445.5z M2021.9,6330c10.2-6.5,24.7-25.4,32.7-40.7l14.5-28.3
		l-29.1-53.8c-15.3-30.5-45-71.9-64.7-93.7c-33.4-34.9-40-38.5-68.3-38.5c-60.3,0-82.8,25.4-106.1,118.4
		c-16.7,70.5-4.4,115.5,38.5,135.8C1887.6,6351.8,1990.7,6351.8,2021.9,6330z M1652.9,6223.3c22.5-21.1,64.7-122,64.7-154
		c0-28.3-26.2-66.1-53-77.7c-26.9-10.9-62.5-6.5-131.5,17.4c-81.4,29.1-106.1,53.8-106.1,107.5c0,22.5,5.8,32,36.3,61
		C1540.3,6249.4,1608.6,6266.1,1652.9,6223.3z"/>
	<path class="st0" d="M2857.1,4751.9c-27.3-9.2-47.6-25.3-61.6-48.8c-19.7-32.3-18-38.6,5.2-19.5c15.1,12.2,26.6,17.1,46.5,18.5
		c24.4,2.5,27.9,1.5,47.6-15.2c21-17.6,21.5-18.5,18.6-48.4c-4-39.9-21-67.3-86-136.7c-28.5-31.3-52.2-58.1-52.2-59.6
		c0-1.5,47.6-2.5,106.3-2.5h106.9l7,33.2c4,18.1,8.7,38.1,10.5,44.8c3.5,11.8,2.9,11.8-13.9-3.4l-18-16.1h-62.3h-62.1l51.6,45.9
		c61.6,54.8,83.1,85.5,87.1,123.9c1.7,22.9,0,31.3-11.1,47.4C2954.6,4748.5,2897.7,4765.6,2857.1,4751.9z"/>
	<path class="st0" d="M3134.1,4747.6c-44.7-20-68.6-64-72.6-136.7c-6.4-101.1,35.5-169.5,106.9-174.4c52.2-3.4,97.6,30.7,115,88.9
		c11.1,37.1,11.1,104.4,0,141.6C3261.2,4738.8,3195.1,4774.4,3134.1,4747.6z M3202.6,4725.6c6.4-13.1,8.1-42.5,8.1-131.8
		c0-132.8-3.5-145.9-36.5-143.1c-12.1,1-20.4,5.4-25,13.1c-17.4,29.2-14.5,252.9,2.9,270.9c4.6,4.3,15.7,7.9,25,7.9
		C3191,4742.7,3195.6,4739.8,3202.6,4725.6z"/>
	<path class="st0" d="M3414.6,4751.9c-27.3-9.2-47.6-25.3-61.6-48.8c-19.7-32.3-18-38.6,5.2-19.5c15.1,12.2,26.6,17.1,46.5,18.5
		c24.4,2.5,27.9,1.5,47.6-15.2c21-17.6,21.5-18.5,18.6-48.4c-4-39.9-21-67.3-86-136.7c-28.5-31.3-52.2-58.1-52.2-59.6
		c0-1.5,47.6-2.5,106.3-2.5h106.9l7,33.2c4,18.1,8.7,38.1,10.5,44.8c3.5,11.8,2.9,11.8-13.9-3.4l-18-16.1h-62.1h-62.1l51.6,45.9
		c61.6,54.8,83.1,85.5,87.1,123.9c1.7,22.9,0,31.3-11.1,47.4C3512.2,4748.5,3455.3,4765.6,3414.6,4751.9z"/>
	<path class="st0" d="M3691.6,4747.6c-44.7-20-68.6-64-72.6-136.7c-6.4-101.1,35.5-169.5,106.9-174.4c52.2-3.4,97.6,30.7,115,88.9
		c11.1,37.1,11.1,104.4,0,141.6C3818.9,4738.8,3752.7,4774.4,3691.6,4747.6z M3760.2,4725.6c6.4-13.1,8.1-42.5,8.1-131.8
		c0-132.8-3.5-145.9-36.5-143.1c-12.1,1-20.4,5.4-25,13.1c-17.4,29.2-14.5,252.9,2.9,270.9c4.6,4.3,15.7,7.9,25,7.9
		C3748.5,4742.7,3753.2,4739.8,3760.2,4725.6z"/>
	<path class="st0" d="M1000.6,6016.9c-16.7-6.5-20.3-15.3-27.6-62.5c-6.5-41.4-27.6-50.9-78.5-35.6c-36.3,10.9-37.8,10.9-55.2-6.5
		l-17.4-17.4l16.7-40.7c23.2-55.2,15.3-71.9-40-87.9c-29.8-8.7-40-15.3-40-25.4c0-7.3-2.2-18.2-4.4-24.7
		c-2.9-7.3,7.3-18.2,32.7-34.9c45.8-29.8,48.7-51.6,12.3-95.9c-23.2-29.1-24-31.2-14.5-53.8c9.4-22.5,10.9-23.2,52.3-23.2
		c55.2,0,63.2-8.7,63.2-71.9c0-43.6,1.5-47.9,18.9-58.1c18.2-10.2,21.8-9.4,53.8,11.6c45.8,29.8,67.6,23.2,90.8-26.9
		c16-34.1,18.9-36.3,43.6-36.3s27.6,2.2,43.6,36.3c23.2,49.4,42.9,55.2,89.4,26.2c34.1-21.1,35.6-21.1,54.5-9.4
		c18.2,10.9,19.6,15.3,17.4,53c-2.9,61,9.4,75.5,63.2,75.5c40.7,0,42.9,0.7,51.6,22.5c6.5,14.5,7.3,26.2,2.9,32
		c-3.6,5.1-15.3,20.3-26.2,33.4c-26.9,34.1-21.1,55.2,22.5,83.5c32,21.8,34.1,24.7,31.2,48.7c-2.9,24.7-5.1,26.9-42.1,37.8
		c-55.2,16-65.4,36.3-42.1,86.4c16.7,36.3,16,50.1-6.5,68.3c-8,6.5-18.9,5.8-47.2-2.2c-48.7-14.5-71.9-5.1-78.5,32
		c-8,49.4-14.5,61.7-35.6,68.3c-18.9,6.5-23.2,4.4-48.7-23.2c-38.5-40.7-63.9-40.7-98.1-0.7
		C1032.5,6025.7,1026.7,6027.8,1000.6,6016.9z M1178.6,5790.3c34.1-21.1,59.6-68.3,59.6-111.9c-0.7-124.9-156.2-178.7-234.6-80.6
		c-28.3,34.9-35.6,97.3-16,138.7C1020.2,5805.6,1111.7,5831,1178.6,5790.3z"/>
	<path class="st0" d="M625,5541.1c10.9-65.4,40.7-143.1,76.3-195.4c41.4-62.5,81.4-99.5,156.9-147.5c37-24,52.3-37,49.4-45
		c-24.7-79.9-82.1-307.3-101.7-403.9c-37-181.6-49.4-292.8-50.1-450.4c-0.7-132.2,13.1-287.7,24.7-274.6
		c2.9,2.9,10.9,50.1,17.4,103.9c26.2,198.3,69.7,374.8,118.4,479.4l25.4,54.5l59.6-174.3c32.7-95.9,73.4-206.3,90.8-244.8
		c33.4-76.3,102.4-186,137.3-218.7l21.1-20.3l-32,88.6c-69.7,191.8-109.7,392.3-116.2,581.1c-5.8,167.1,11.6,292,57.4,416.2
		c15.3,42.1,16,42.9,70.5,67.6c177.2,80.6,281.1,200.5,301.5,347.2c3.6,26.9,1.5,25.4-25.4-26.9c-21.1-40-44.3-69.7-79.9-103.9
		c-89.4-83.5-190.3-121.3-329.8-121.3c-143.8,0-263.7,45-357.4,135.1c-57.4,53.8-75.5,79.2-101.7,141.7
		C621.4,5568,620.7,5568.7,625,5541.1z"/>
	<path class="st0" d="M4280,3710h175h175"/>
	<path class="st0" d="M1647.3,5389.1c-39.4-17.3-71.2-73.6-71.2-124.5c0-59.5,30.8-103.9,100-142.9
		c85.6-47.6,111.6-75.8,111.6-116.9c0-49.8-32.7-75.8-87.5-67.1c-47.1,6.5-89.4,47.6-114.4,110.4l-18.3,43.3v-90.9
		c-1-90.9-1-90.9,18.3-71.4c19.2,19.5,22.1,19.5,65.4,2.2c59.6-23.8,92.3-22.7,136.6,4.3c67.3,42.2,86.6,125.5,46.2,193.7
		c-13.5,21.6-51.9,54.1-99.1,83.3c-42.3,26-82.7,55.2-88.5,64.9c-30.8,45.5,1,100.7,57.7,100.7c41.4,0,78.9-30.3,107.7-85.5l25-49.8
		l-4.8,53c-2.9,29.2-5.8,62.8-5.8,75.8c0,18.4-1.9,19.5-9.6,6.5c-7.7-13-14.4-13-54.8,3.2C1711.7,5401,1679.1,5404.2,1647.3,5389.1z
		"/>
	<path class="st0" d="M2672.5,5350.1c-86.6-228.4-152-381-172.2-401.5l-23.1-24.9l66.4,1.1c55.8,0,62.5,2.2,40.4,11.9
		c-29.8,11.9-33.7,36.8-16.3,94.2l10.6,33.6h75h75l16.3-48.7c19.2-55.2,15.4-77.9-16.3-84.4c-12.5-2.2,22.1-5.4,76-6.5l98.1-1.1
		l-21.2,24.9c-12.5,13-57.7,119.1-101.9,234.9c-44.2,115.8-81.7,213.2-83.7,215.4C2693.7,5401,2683.1,5379.3,2672.5,5350.1z"/>
	<path class="st0" d="M4080.5,5373.9c-174.1-90.9-171.2-374.5,4.8-444.8c65.4-26,125-20.6,184.7,14.1c30.8,18.4,52.9,39,55.8,52
		c2.9,19.5,1.9,19.5-19.2-2.2c-79.8-81.2-179.8-76.8-226,10.8c-27.9,53-30.8,215.4-5.8,280.3c48.1,122.3,184.7,125.5,232.7,4.3
		l19.2-45.5v73.6c0,67.1-1,71.4-17.3,60.6c-13.5-9.7-27.9-7.6-62.5,5.4C4183.4,5406.4,4138.2,5404.2,4080.5,5373.9z"/>
	<path class="st0" d="M4514.3,5379.3c-47.1-23.8-95.2-83.3-110.6-137.5c-18.3-62.8-7.7-168.8,23.1-220.8
		c71.2-121.2,227.9-143.9,323.1-47.6c51,52,70.2,113.6,65.4,206.7c-2.9,58.4-9.6,83.3-30.8,119.1
		C4730.7,5389.1,4605.7,5426.9,4514.3,5379.3z M4673.9,5344.7c33.7-40,42.3-85.5,41.4-204.6c-1.9-163.4-61.6-240.3-151-193.7
		c-41.4,21.6-58.7,70.3-62.5,182.9c-4.8,125.5,7.7,184,47.1,220.8C4591.2,5390.1,4637.4,5388,4673.9,5344.7z"/>
	<path class="st0" d="M1920.4,5381.5c12.5-2.2,26-17.3,31.7-31.4c10.6-32.5,11.5-372.3,1-390.7c-3.8-7.6-18.3-17.3-30.8-23.8
		c-19.2-8.7-8.7-10.8,48.1-9.7c59.6,0,66.4,1.1,42.3,9.7c-19.2,6.5-32.7,18.4-36.5,33.6c-7.7,35.7-6.7,344.2,1.9,344.2
		c3.8,0,41.4-87.7,83.7-194.8c41.4-107.1,78.9-191.6,81.7-186.2c3.8,4.3,40.4,97.4,82.7,207.8l76,200.2l2.9-188.3
		c2.9-195.9,0-212.1-39.4-220.8c-11.5-2.2,28.9-4.3,89.4-5.4c83.7,0,102.9,2.2,79.8,9.7l-31.7,10.8v210v210l31.7,10.8
		c25,8.7,16.3,9.7-51.9,10.8l-83.7,1.1l-45.2-121.2c-25-67.1-51.9-138.5-59.6-159.1l-14.4-37.9l-59.6,156.9l-59.6,155.9l-80.8,1.1
		C1934.9,5385.8,1907.9,5384.7,1920.4,5381.5z"/>
	<path class="st0" d="M2949.5,5377.2l30.8-10.8v-210v-210l-30.8-10.8c-24-7.6-5.8-9.7,78.9-9.7s102.9,2.2,79.8,9.7l-31.7,10.8v96.3
		c0,77.9,2.9,97.4,13.5,97.4c7.7,0,44.2-48.7,79.8-108.2l65.4-107.1h62.5c47.1,0,58.7,2.2,45.2,10.8
		c-23.1,15.2-133.7,202.4-127,215.4c2.9,6.5,11.5,10.8,18.3,10.8c6.7,0,22.1,13,35.6,28.1c32.7,39,32.7,110.4,0,149.4
		c-33.7,40-76,49.8-222.2,48.7C2949.5,5386.9,2925.5,5384.7,2949.5,5377.2z M3177.5,5340.4c18.3-19.5,24-37.9,24-73.6
		c0-66-22.1-95.2-79.8-101.7l-45.2-6.5v105v103.9h38.5C3143.8,5367.4,3160.1,5359.8,3177.5,5340.4z"/>
	<path class="st0" d="M3384.2,5338.2l1-52l14.4,29.2c17.3,37.9,41.4,52,84.6,52h34.6v-198.1c0-207.8-3.8-227.3-43.3-238.1
		c-10.6-3.2,28.9-5.4,86.6-5.4c58.7,0,97.1,2.2,86.6,5.4c-39.4,10.8-43.3,30.3-43.3,238.1v198.1h34.6c45.2,0,70.2-16.2,85.6-57.4
		l13.5-34.6l1,57.4v56.3h-177.9h-177.9V5338.2z"/>
	<path class="st0" d="M4882.6,5381.5c12.5-2.2,26-17.3,31.7-31.4c10.6-32.5,11.5-372.3,1-390.7c-3.8-7.6-18.3-17.3-30.8-23.8
		c-19.2-8.7-8.7-10.8,48.1-9.7c59.6,0,66.4,1.1,42.3,9.7c-19.2,6.5-32.7,18.4-36.5,33.6c-7.7,35.7-6.7,344.2,1.9,344.2
		c3.8,0,41.4-87.7,83.7-194.8c41.4-107.1,78.9-191.6,81.7-186.2c3.8,4.3,40.4,97.4,82.7,207.8l76,200.2l2.9-188.3
		c2.9-195.9,0-212.1-39.4-220.8c-11.5-2.2,28.9-4.3,89.4-5.4c83.7,0,102.9,2.2,79.8,9.7l-31.7,10.8v210v210l31.7,10.8
		c25,8.7,16.3,9.7-51.9,10.8l-83.7,1.1l-45.2-121.2c-25-67.1-51.9-138.5-59.6-159.1l-14.4-37.9l-59.6,156.9l-59.6,155.9l-80.8,1.1
		C4897.1,5385.8,4870.1,5384.7,4882.6,5381.5z"/>
</g>
</svg>
