<?xml version="1.0" encoding="utf-8"?>
<!-- Generator: Adobe Illustrator 24.0.1, SVG Export Plug-In . SVG Version: 6.00 Build 0)  -->
<svg version="1.1" id="Layer_1" xmlns="http://www.w3.org/2000/svg" xmlns:xlink="http://www.w3.org/1999/xlink" x="0px" y="0px"
	 viewBox="0 0 572 432" style="enable-background:new 0 0 572 432;" xml:space="preserve">
<style type="text/css">
	.st0{fill:#FFD45F;}
</style>
<g transform="translate(0.000000,768.000000) scale(0.100000,-0.100000)">
	<path class="st0" d="M1639.1,6996.2c-5.1-5.1-8.7-17.4-8.7-28.3c0-24-20.3-49.4-40-50.9c-34.1-2.9-47.9,1.5-53.8,17.4
		c-8,21.1-21.1,32-45.8,37.8c-15.3,3.6-24,0.7-37.8-13.1c-15.3-15.3-17.4-22.5-13.8-47.9c3.6-25.4,1.5-33.4-12.3-47.9
		c-21.8-23.2-46.5-23.2-81.4,1.5c-24,16-30.5,17.4-45.8,10.9c-29.1-13.1-37.8-40-23.2-71.2c16-33.4,15.3-50.9-2.9-69
		c-13.1-13.1-20.3-14.5-60.3-10.2c-42.9,5.1-47.2,3.6-58.1-11.6c-17.4-24.7-14.5-42.9,10.9-69c42.1-43.6,19.6-97.3-41.4-97.3
		c-26.9,0-31.2-2.2-39.2-21.1c-13.8-34.9-7.3-53.8,25.4-69c35.6-16.7,40-22.5,40-57.4c0-25.4-2.2-28.3-34.1-43.6
		c-29.8-13.8-34.9-19.6-37-39.2c-3.6-38.5,8.7-53,45.8-53c45.8,0,67.6-23.2,61.7-64.7c-0.7-5.8-10.9-19.6-22.5-30.5
		c-26.9-24.7-28.3-55.2-2.9-79.2c17.4-16.7,18.2-16.7,48.7-5.1c27.6,10.9,32,10.9,47.2,0.7c28.3-18.2,36.3-44.3,21.8-69.7
		c-16.7-29.1-15.3-50.9,4.4-69.7c21.8-20.3,37-20.3,66.1,2.2c29.1,21.8,50.1,23.2,69.7,3.6c16-16,17.4-20.3,15.3-62.5
		c-1.5-24.7,1.5-32.7,14.5-42.1c26.9-18.2,55.2-15.3,69.7,8.7c17.4,28.3,31.2,37.8,54.5,37.8c24.7,0,49.4-23.2,49.4-45.8
		c0-24,14.5-40.7,40.7-45.8c27.6-5.1,53.8,16,53.8,44.3c0,26.2,24,47.2,54.5,47.2c21.8,0,28.3-3.6,40.7-25.4
		c20.3-34.1,35.6-41.4,63.9-32c25.4,8.7,33.4,26.9,26.2,61.7c-3.6,21.1-1.5,28.3,17.4,46.5c26.2,26.9,39.2,26.9,71.2,2.9
		c30.5-23.2,57.4-21.1,77.7,6.5l14.5,20.3l-17.4,32c-15.3,28.3-16,34.1-8,49.4c15.3,28.3,40,38.5,69,28.3
		c34.9-12.3,45-10.9,61.7,10.2c21.1,26.2,19.6,36.3-10.2,69c-13.8,16-25.4,36.3-25.4,45c0,26.2,30.5,50.1,68.3,53.8
		c29.8,3.6,33.4,6.5,41.4,29.1c10.2,32,5.8,42.9-27.6,58.1c-58.1,27.6-61,80.6-5.1,103.9c37,16,43.6,27.6,34.1,60.3
		c-5.8,20.3-10.2,24-42.1,29.1c-41.4,6.5-69,28.3-69,53.8c0,10.2,10.9,28.3,25.4,43.6c29.8,31.2,31.2,45,8,72.6
		c-17.4,19.6-18.2,19.6-52.3,10.9c-31.2-8.7-36.3-8-53,4.4c-23.2,17.4-27.6,45.8-10.9,79.9c10.9,23.2,10.9,28.3,2.2,45
		c-15.3,26.2-47.9,27.6-82.8,4.4c-15.3-10.9-29.8-18.9-33.4-18.9c-2.9,0-16,8.7-28.3,18.9c-20.3,17.4-22.5,22.5-20.3,55.9
		c2.2,32,0,37.8-17.4,50.1c-25.4,19.6-53,13.1-67.6-16.7c-26.2-50.1-83.5-43.6-99.5,10.9c-4.4,16-11.6,34.1-15.3,39.2
		C1699.4,7007.1,1650.7,7007.8,1639.1,6996.2z M1690.7,6792.8c29.1-34.9,31.2-52.3,12.3-110.4c-28.3-88.6-58.8-120.6-116.2-120.6
		c-24,0-40,6.5-78.5,33.4c-66.8,46.5-81.4,65.4-81.4,102.4c0,39.2,23.2,67.6,74.1,89.4C1598.4,6829.8,1658,6831.3,1690.7,6792.8z
		 M1930.4,6725.9c51.6-21.1,128.6-130,128.6-180.9c0-24-5.1-33.4-29.1-57.4l-29.1-29.1l-71.2,2.9c-79.9,2.9-101,11.6-124.9,51.6
		c-18.9,30.5-18.2,57.4,3.6,121.3c23.2,68.3,34.9,85,63.9,93.7C1904.3,6737.6,1904.3,6737.6,1930.4,6725.9z M1405.9,6526.9
		c130-82.8,132.2-156.2,5.8-240.5c-51.6-34.9-79.9-37.8-116.2-13.1c-29.8,19.6-41.4,54.5-42.1,122.8
		c-0.7,77.7,10.9,120.6,37.8,137.3C1325.3,6553.8,1366.7,6551.6,1405.9,6526.9z M1708.9,6445.5c34.9-32.7,10.2-94.4-37.8-94.4
		c-38.5,0-63.2,40-47.2,74.8C1639.1,6460.1,1682.7,6469.5,1708.9,6445.5z M2021.9,6330c10.2-6.5,24.7-25.4,32.7-40.7l14.5-28.3
		l-29.1-53.8c-15.3-30.5-45-71.9-64.7-93.7c-33.4-34.9-40-38.5-68.3-38.5c-60.3,0-82.8,25.4-106.1,118.4
		c-16.7,70.5-4.4,115.5,38.5,135.8C1887.6,6351.8,1990.7,6351.8,2021.9,6330z M1652.9,6223.3c22.5-21.1,64.7-122,64.7-154
		c0-28.3-26.2-66.1-53-77.7c-26.9-10.9-62.5-6.5-131.5,17.4c-81.4,29.1-106.1,53.8-106.1,107.5c0,22.5,5.8,32,36.3,61
		C1540.3,6249.4,1608.6,6266.1,1652.9,6223.3z"/>
	<path class="st0" d="M2507.8,4693c-24.4-7.3-42.6-20.2-55-39c-17.6-25.7-16.1-30.8,4.6-15.5c13.5,9.8,23.8,13.6,41.5,14.8
		c21.8,2,24.9,1.2,42.6-12.1c18.8-14.1,19.3-14.8,16.6-38.6c-3.6-31.9-18.8-53.7-76.9-109.1c-25.5-25-46.7-46.4-46.7-47.6
		c0-1.2,42.6-2,95-2h95.6l6.3,26.5c3.6,14.4,7.7,30.4,9.4,35.8c3.1,9.4,2.6,9.4-12.5-2.7l-16.1-12.9h-55.7H2501l46.2,36.6
		c55,43.7,74.3,68.2,77.9,98.9c1.5,18.3,0,25-9.9,37.8C2595,4690.3,2544.1,4704,2507.8,4693z"/>
	<path class="st0" d="M2755.5,4689.6c-40-16-61.3-51-64.9-109.1c-5.8-80.7,31.7-135.3,95.6-139.2c46.7-2.7,87.3,24.5,102.9,70.9
		c9.9,29.6,9.9,83.4,0,113C2869.2,4682.6,2810,4711,2755.5,4689.6z M2816.7,4672c5.8-10.5,7.2-33.9,7.2-105.2
		c0-106-3.1-116.4-32.7-114.2c-10.8,0.8-18.2,4.3-22.4,10.5c-15.6,23.3-13,201.9,2.6,216.2c4.1,3.5,14,6.3,22.4,6.3
		C2806.4,4685.7,2810.6,4683.4,2816.7,4672z"/>
	<path class="st0" d="M3006.4,4693c-24.4-7.3-42.6-20.2-55-39c-17.6-25.7-16.1-30.8,4.6-15.5c13.5,9.8,23.8,13.6,41.5,14.8
		c21.8,2,24.9,1.2,42.6-12.1c18.8-14.1,19.3-14.8,16.6-38.6c-3.6-31.9-18.8-53.7-76.9-109.1c-25.5-25-46.7-46.4-46.7-47.6
		c0-1.2,42.6-2,95-2h95.6l6.3,26.5c3.6,14.4,7.7,30.4,9.4,35.8c3.1,9.4,2.6,9.4-12.5-2.7l-16.1-12.9h-55.6h-55.6l46.2,36.6
		c55,43.7,74.3,68.2,77.9,98.9c1.5,18.3,0,25-9.9,37.8C3093.7,4690.3,3042.8,4704,3006.4,4693z"/>
	<path class="st0" d="M3254.1,4689.6c-40-16-61.3-51-64.9-109.1c-5.8-80.7,31.7-135.3,95.6-139.2c46.7-2.7,87.3,24.5,102.9,70.9
		c9.9,29.6,9.9,83.4,0,113C3368,4682.6,3308.7,4711,3254.1,4689.6z M3315.5,4672c5.8-10.5,7.2-33.9,7.2-105.2
		c0-106-3.1-116.4-32.7-114.2c-10.8,0.8-18.2,4.3-22.4,10.5c-15.6,23.3-13,201.9,2.6,216.2c4.1,3.5,14,6.3,22.4,6.3
		C3305,4685.7,3309.2,4683.4,3315.5,4672z"/>
	<path class="st0" d="M1000.6,6016.9c-16.7-6.5-20.3-15.3-27.6-62.5c-6.5-41.4-27.6-50.9-78.5-35.6c-36.3,10.9-37.8,10.9-55.2-6.5
		l-17.4-17.4l16.7-40.7c23.2-55.2,15.3-71.9-40-87.9c-29.8-8.7-40-15.3-40-25.4c0-7.3-2.2-18.2-4.4-24.7
		c-2.9-7.3,7.3-18.2,32.7-34.9c45.8-29.8,48.7-51.6,12.3-95.9c-23.2-29.1-24-31.2-14.5-53.8c9.4-22.5,10.9-23.2,52.3-23.2
		c55.2,0,63.2-8.7,63.2-71.9c0-43.6,1.5-47.9,18.9-58.1c18.2-10.2,21.8-9.4,53.8,11.6c45.8,29.8,67.6,23.2,90.8-26.9
		c16-34.1,18.9-36.3,43.6-36.3s27.6,2.2,43.6,36.3c23.2,49.4,42.9,55.2,89.4,26.2c34.1-21.1,35.6-21.1,54.5-9.4
		c18.2,10.9,19.6,15.3,17.4,53c-2.9,61,9.4,75.5,63.2,75.5c40.7,0,42.9,0.7,51.6,22.5c6.5,14.5,7.3,26.2,2.9,32
		c-3.6,5.1-15.3,20.3-26.2,33.4c-26.9,34.1-21.1,55.2,22.5,83.5c32,21.8,34.1,24.7,31.2,48.7c-2.9,24.7-5.1,26.9-42.1,37.8
		c-55.2,16-65.4,36.3-42.1,86.4c16.7,36.3,16,50.1-6.5,68.3c-8,6.5-18.9,5.8-47.2-2.2c-48.7-14.5-71.9-5.1-78.5,32
		c-8,49.4-14.5,61.7-35.6,68.3c-18.9,6.5-23.2,4.4-48.7-23.2c-38.5-40.7-63.9-40.7-98.1-0.7
		C1032.5,6025.7,1026.7,6027.8,1000.6,6016.9z M1178.6,5790.3c34.1-21.1,59.6-68.3,59.6-111.9c-0.7-124.9-156.2-178.7-234.6-80.6
		c-28.3,34.9-35.6,97.3-16,138.7C1020.2,5805.6,1111.7,5831,1178.6,5790.3z"/>
	<path class="st0" d="M625,5541.1c10.9-65.4,40.7-143.1,76.3-195.4c41.4-62.5,81.4-99.5,156.9-147.5c37-24,52.3-37,49.4-45
		c-24.7-79.9-82.1-307.3-101.7-403.9c-37-181.6-49.4-292.8-50.1-450.4c-0.7-132.2,13.1-287.7,24.7-274.6
		c2.9,2.9,10.9,50.1,17.4,103.9c26.2,198.3,69.7,374.8,118.4,479.4l25.4,54.5l59.6-174.3c32.7-95.9,73.4-206.3,90.8-244.8
		c33.4-76.3,102.4-186,137.3-218.7l21.1-20.3l-32,88.6c-69.7,191.8-109.7,392.3-116.2,581.1c-5.8,167.1,11.6,292,57.4,416.2
		c15.3,42.1,16,42.9,70.5,67.6c177.2,80.6,281.1,200.5,301.5,347.2c3.6,26.9,1.5,25.4-25.4-26.9c-21.1-40-44.3-69.7-79.9-103.9
		c-89.4-83.5-190.3-121.3-329.8-121.3c-143.8,0-263.7,45-357.4,135.1c-57.4,53.8-75.5,79.2-101.7,141.7
		C621.4,5568,620.7,5568.7,625,5541.1z"/>
	<path class="st0" d="M4280,3710h175h175"/>
	<path class="st0" d="M1628.5,5211c-30.2-14.1-54.4-59.9-54.4-101.2c0-48.4,23.5-84.5,76.5-116.2c65.5-38.7,85.3-61.6,85.3-95.1
		c0-40.5-25-61.6-66.9-54.6c-36,5.3-68.4,38.7-87.5,89.8l-14,35.2l0-73.9c-0.7-73.9-0.7-73.9,14-58.1c14.7,15.8,16.9,15.8,50,1.8
		c45.6-19.4,70.6-18.5,104.5,3.5c51.5,34.3,66.2,102.1,35.3,157.5c-10.3,17.6-39.7,44-75.8,67.8c-32.4,21.1-63.3,44.9-67.7,52.8
		c-23.5,37,0.7,81.9,44.1,81.9c31.6,0,60.3-24.6,82.4-69.5l19.1-40.5l-3.7,43.1c-2.2,23.8-4.4,51-4.4,61.6c0,15-1.5,15.8-7.4,5.3
		c-5.9-10.6-11-10.6-41.9,2.6C1677.8,5220.7,1652.7,5223.3,1628.5,5211z"/>
	<path class="st0" d="M2412.7,5179.4c-66.2-185.7-116.2-309.8-131.7-326.5l-17.7-20.2l50.8,0.9c42.7,0,47.8,1.8,30.9,9.7
		c-22.8,9.7-25.8,29.9-12.5,76.6l8.1,27.3l57.4,0l57.4,0l12.5-39.6c14.7-44.9,11.8-63.4-12.5-68.7c-9.6-1.8,16.9-4.4,58.1-5.3
		l75-0.9l-16.2,20.2c-9.6,10.6-44.1,96.8-78,191c-33.8,94.2-62.5,173.4-64,175.1S2420.8,5203.1,2412.7,5179.4z"/>
	<path class="st0" d="M3489.7,5198.8c-133.2-73.9-130.9-304.5,3.7-361.7c50-21.1,95.6-16.7,141.2,11.4c23.5,15,40.5,31.7,42.7,42.2
		c2.2,15.8,1.5,15.8-14.7-1.8c-61.1-66-137.6-62.5-172.9,8.8c-21.3,43.1-23.5,175.1-4.4,228c36.8,99.5,141.2,102.1,178,3.5l14.7-37
		l0,59.9c0,54.6-0.7,58.1-13.2,49.3c-10.3-7.9-21.3-6.2-47.8,4.4C3568.4,5225.2,3533.9,5223.4,3489.7,5198.8z"/>
	<path class="st0" d="M3821.5,5203.2c-36-19.4-72.8-67.8-84.6-111.8c-14-51-5.9-137.3,17.7-179.6c54.4-98.6,174.4-117.1,247.2-38.7
		c39,42.2,53.7,92.4,50,168.1c-2.2,47.5-7.4,67.8-23.5,96.8C3987.1,5211.1,3891.4,5241.9,3821.5,5203.2z M3943.6,5175
		c25.8-32.6,32.4-69.5,31.6-166.3c-1.5-132.9-47.1-195.4-115.5-157.6c-31.6,17.6-44.9,57.2-47.8,148.7
		c-3.7,102.1,5.9,149.6,36,179.6C3880.4,5212,3915.7,5210.2,3943.6,5175z"/>
	<path class="st0" d="M1837.4,5204.9c9.6-1.8,19.9-14.1,24.3-25.5c8.1-26.4,8.8-302.8,0.7-317.7c-2.9-6.2-14-14.1-23.5-19.4
		c-14.7-7-6.6-8.8,36.8-7.9c45.6,0,50.8,0.9,32.4,7.9c-14.7,5.3-25,15-28,27.3c-5.9,29-5.2,279.9,1.5,279.9
		c2.9,0,31.6-71.3,64-158.4c31.6-87.1,60.3-155.8,62.5-151.4c2.9,3.5,30.9,79.2,63.3,169l58.1,162.8l2.2-153.1
		c2.2-159.3,0-172.5-30.2-179.6c-8.8-1.8,22.1-3.5,68.4-4.4c64,0,78.7,1.8,61.1,7.9l-24.3,8.8l0,170.8l0,170.8l24.3,8.8
		c19.1,7,12.5,7.9-39.7,8.8l-64,0.9l-34.6-98.6c-19.1-54.6-39.7-112.7-45.6-129.4l-11-30.8l-45.6,127.6l-45.6,126.7l-61.8,0.9
		C1848.4,5208.4,1827.8,5207.5,1837.4,5204.9z"/>
	<path class="st0" d="M2624.6,5201.4l23.5-8.8l0-170.8l0-170.8l-23.5-8.8c-18.4-6.2-4.4-7.9,60.3-7.9c64.7,0,78.7,1.8,61.1,7.9
		l-24.3,8.8l0,78.3c0,63.4,2.2,79.2,10.3,79.2c5.9,0,33.8-39.6,61.1-88l50-87.1l47.8,0c36,0,44.9,1.8,34.6,8.8
		c-17.7,12.3-102.3,164.6-97.1,175.1c2.2,5.3,8.8,8.8,14,8.8c5.1,0,16.9,10.6,27.2,22.9c25,31.7,25,89.8,0,121.5
		c-25.8,32.6-58.1,40.5-169.9,39.6C2624.6,5209.3,2606.2,5207.5,2624.6,5201.4z M2798.9,5171.5c14-15.8,18.4-30.8,18.4-59.8
		c0-53.7-16.9-77.5-61.1-82.7l-34.6-5.3l0,85.4l0,84.5l29.4,0C2773.2,5193.5,2785.7,5187.3,2798.9,5171.5z"/>
	<path class="st0" d="M2957.1,5169.7l0.7-42.2l11,23.8c13.2,30.8,31.6,42.2,64.7,42.3l26.5,0l0-161.1c0-169-2.9-184.8-33.1-193.6
		c-8.1-2.6,22.1-4.4,66.2-4.4c44.9,0,74.3,1.8,66.2,4.4c-30.2,8.8-33.1,24.6-33.1,193.6l0,161.1l26.5,0c34.6,0,53.7-13.2,65.5-46.6
		l10.3-28.2l0.7,46.6l0,45.8l-136.1,0l-136.1,0L2957.1,5169.7z"/>
	<path class="st0" d="M4103.3,5205c9.6-1.8,19.9-14.1,24.3-25.5c8.1-26.4,8.8-302.8,0.7-317.7c-2.9-6.2-14-14.1-23.5-19.4
		c-14.7-7-6.6-8.8,36.8-7.9c45.6,0,50.8,0.9,32.4,7.9c-14.7,5.3-25,15-28,27.3c-5.9,29-5.2,279.9,1.5,279.9
		c2.9,0,31.6-71.3,64-158.4c31.6-87.1,60.3-155.8,62.5-151.4c2.9,3.5,30.9,79.2,63.3,169l58.1,162.8l2.2-153.1
		c2.2-159.3,0-172.5-30.2-179.6c-8.8-1.8,22.1-3.5,68.4-4.4c64,0,78.7,1.8,61.1,7.9l-24.3,8.8l0,170.8l0,170.8l24.3,8.8
		c19.1,7,12.5,7.9-39.7,8.8l-64,0.9l-34.6-98.6c-19.1-54.6-39.7-112.7-45.6-129.4l-11-30.8l-45.6,127.6l-45.6,126.7l-61.8,0.9
		C4114.3,5208.5,4093.7,5207.6,4103.3,5205z"/>
</g>
</svg>
