<?xml version="1.0" encoding="utf-8"?>
<!-- Generator: Adobe Illustrator 24.0.1, SVG Export Plug-In . SVG Version: 6.00 Build 0)  -->
<svg version="1.1" id="Layer_1" xmlns="http://www.w3.org/2000/svg" xmlns:xlink="http://www.w3.org/1999/xlink" x="0px" y="0px"
	 viewBox="0 0 572 432" style="enable-background:new 0 0 572 432;" xml:space="preserve">
<style type="text/css">
	.st0{fill:#FFD45F;}
</style>
<g transform="translate(0.000000,768.000000) scale(0.100000,-0.100000)">
	<path class="st0" d="M1712,7558c-7-7-12-24-12-39c0-33-28-68-55-70c-47-4-66,2-74,24c-11,29-29,44-63,52c-21,5-33,1-52-18
		c-21-21-24-31-19-66s2-46-17-66c-30-32-64-32-112,2c-33,22-42,24-63,15c-40-18-52-55-32-98c22-46,21-70-4-95c-18-18-28-20-83-14
		c-59,7-65,5-80-16c-24-34-20-59,15-95c58-60,27-134-57-134c-37,0-43-3-54-29c-19-48-10-74,35-95c49-23,55-31,55-79c0-35-3-39-47-60
		c-41-19-48-27-51-54c-5-53,12-73,63-73c63,0,93-32,85-89c-1-8-15-27-31-42c-37-34-39-76-4-109c24-23,25-23,67-7c38,15,44,15,65,1
		c39-25,50-61,30-96c-23-40-21-70,6-96c30-28,51-28,91,3c40,30,69,32,96,5c22-22,24-28,21-86c-2-34,2-45,20-58c37-25,76-21,96,12
		c24,39,43,52,75,52c34,0,68-32,68-63c0-33,20-56,56-63c38-7,74,22,74,61c0,36,33,65,75,65c30,0,39-5,56-35c28-47,49-57,88-44
		c35,12,46,37,36,85c-5,29-2,39,24,64c36,37,54,37,98,4c42-32,79-29,107,9l20,28l-24,44c-21,39-22,47-11,68c21,39,55,53,95,39
		c48-17,62-15,85,14c29,36,27,50-14,95c-19,22-35,50-35,62c0,36,42,69,94,74c41,5,46,9,57,40c14,44,8,59-38,80c-80,38-84,111-7,143
		c51,22,60,38,47,83c-8,28-14,33-58,40c-57,9-95,39-95,74c0,14,15,39,35,60c41,43,43,62,11,100c-24,27-25,27-72,15
		c-43-12-50-11-73,6c-32,24-38,63-15,110c15,32,15,39,3,62c-21,36-66,38-114,6c-21-15-41-26-46-26c-4,0-22,12-39,26
		c-28,24-31,31-28,77c3,44,0,52-24,69c-35,27-73,18-93-23c-36-69-115-60-137,15c-6,22-16,47-21,54C1795,7573,1728,7574,1712,7558z
		 M1783,7278c40-48,43-72,17-152c-39-122-81-166-160-166c-33,0-55,9-108,46c-92,64-112,90-112,141c0,54,32,93,102,123
		C1656,7329,1738,7331,1783,7278z M2113,7186c71-29,177-179,177-249c0-33-7-46-40-79l-40-40l-98,4c-110,4-139,16-172,71
		c-26,42-25,79,5,167c32,94,48,117,88,129C2077,7202,2077,7202,2113,7186z M1391,6912c179-114,182-215,8-331c-71-48-110-52-160-18
		c-41,27-57,75-58,169c-1,107,15,166,52,189C1280,6949,1337,6946,1391,6912z M1808,6800c48-45,14-130-52-130c-53,0-87,55-65,103
		C1712,6820,1772,6833,1808,6800z M2239,6641c14-9,34-35,45-56l20-39l-40-74c-21-42-62-99-89-129c-46-48-55-53-94-53
		c-83,0-114,35-146,163c-23,97-6,159,53,187C2054,6671,2196,6671,2239,6641z M1731,6494c31-29,89-168,89-212c0-39-36-91-73-107
		c-37-15-86-9-181,24c-112,40-146,74-146,148c0,31,8,44,50,84C1576,6530,1670,6553,1731,6494z"/>
	<path class="st0" d="M1633.8,4361.6c-27.6-8.5-48.2-23.4-62.3-45.1c-20-29.8-18.2-35.7,5.3-18c15.3,11.3,27,15.8,47,17.1
		c24.7,2.3,28.2,1.4,48.2-14c21.2-16.3,21.8-17.1,18.8-44.7c-4.1-36.9-21.2-62.2-87-126.3c-28.8-28.9-52.9-53.7-52.9-55.1
		c0-1.4,48.2-2.3,107.6-2.3h108.2l7.1,30.7c4.1,16.7,8.8,35.2,10.6,41.4c3.5,10.9,2.9,10.9-14.1-3.1l-18.2-14.9H1689h-62.9
		l52.3,42.4c62.3,50.6,84.1,79,88.2,114.5c1.8,21.2,0,28.9-11.2,43.8C1732.5,4358.5,1674.9,4374.3,1633.8,4361.6z"/>
	<path class="st0" d="M1914.2,4357.6c-45.3-18.5-69.4-59.1-73.5-126.3c-6.5-93.4,35.9-156.6,108.2-161.1
		c52.9-3.1,98.8,28.4,116.4,82.1c11.2,34.3,11.2,96.5,0,130.8C2042.9,4349.5,1975.9,4382.4,1914.2,4357.6z M1983.5,4337.3
		c6.5-12.1,8.2-39.3,8.2-121.8c0-122.7-3.5-134.8-37-132.2c-12.3,0.9-20.6,5-25.3,12.1c-17.6,27-14.7,233.7,2.9,250.3
		c4.7,4,15.9,7.3,25.3,7.3C1971.8,4353.1,1976.5,4350.4,1983.5,4337.3z"/>
	<path class="st0" d="M2198.1,4361.6c-27.6-8.5-48.2-23.4-62.3-45.1c-20-29.8-18.2-35.7,5.3-18c15.3,11.3,27,15.8,47,17.1
		c24.7,2.3,28.2,1.4,48.2-14c21.2-16.3,21.8-17.1,18.8-44.7c-4.1-36.9-21.2-62.2-87-126.3c-28.8-28.9-52.9-53.7-52.9-55.1
		c0-1.4,48.2-2.3,107.6-2.3H2331l7.1,30.7c4.1,16.7,8.8,35.2,10.6,41.4c3.5,10.9,2.9,10.9-14.1-3.1l-18.2-14.9h-62.9h-62.9
		l52.3,42.4c62.3,50.6,84.1,79,88.2,114.5c1.8,21.2,0,28.9-11.2,43.8C2296.9,4358.5,2239.3,4374.3,2198.1,4361.6z"/>
	<path class="st0" d="M2478.5,4357.6c-45.3-18.5-69.4-59.1-73.5-126.3c-6.5-93.4,35.9-156.6,108.2-161.1
		c52.9-3.1,98.8,28.4,116.4,82.1c11.2,34.3,11.2,96.5,0,130.8C2607.3,4349.5,2540.3,4382.4,2478.5,4357.6z M2547.9,4337.3
		c6.5-12.1,8.2-39.3,8.2-121.8c0-122.7-3.5-134.8-37-132.2c-12.3,0.9-20.6,5-25.3,12.1c-17.6,27-14.7,233.7,2.9,250.3
		c4.7,4,15.9,7.3,25.3,7.3C2536.1,4353.1,2540.8,4350.4,2547.9,4337.3z"/>
	<path class="st0" d="M833,6210c-23-9-28-21-38-86c-9-57-38-70-108-49c-50,15-52,15-76-9l-24-24l23-56c32-76,21-99-55-121
		c-41-12-55-21-55-35c0-10-3-25-6-34c-4-10,10-25,45-48c63-41,67-71,17-132c-32-40-33-43-20-74s15-32,72-32c76,0,87-12,87-99
		c0-60,2-66,26-80c25-14,30-13,74,16c63,41,93,32,125-37c22-47,26-50,60-50s38,3,60,50c32,68,59,76,123,36c47-29,49-29,75-13
		c25,15,27,21,24,73c-4,84,13,104,87,104c56,0,59,1,71,31c9,20,10,36,4,44c-5,7-21,28-36,46c-37,47-29,76,31,115c44,30,47,34,43,67
		c-4,34-7,37-58,52c-76,22-90,50-58,119c23,50,22,69-9,94c-11,9-26,8-65-3c-67-20-99-7-108,44c-11,68-20,85-49,94c-26,9-32,6-67-32
		c-53-56-88-56-135-1C877,6222,869,6225,833,6210z M1078,5898c47-29,82-94,82-154c-1-172-215-246-323-111c-39,48-49,134-22,191
		C860,5919,986,5954,1078,5898z"/>
	<path class="st0" d="M316,5555c15-90,56-197,105-269c57-86,112-137,216-203c51-33,72-51,68-62c-34-110-113-423-140-556
		c-51-250-68-403-69-620c-1-182,18-396,34-378c4,4,15,69,24,143c36,273,96,516,163,660l35,75l82-240c45-132,101-284,125-337
		c46-105,141-256,189-301l29-28l-44,122c-96,264-151,540-160,800c-8,230,16,402,79,573c21,58,22,59,97,93c244,111,387,276,415,478
		c5,37,2,35-35-37c-29-55-61-96-110-143c-123-115-262-167-454-167c-198,0-363,62-492,186c-79,74-104,109-140,195
		C311,5592,310,5593,316,5555z"/>
	<path class="st0" d="M4280,3710h175h175"/>
	<path class="st0" d="M1650.5,4950.3c-41-16-74-68-74-115c0-55,32-96,104-132c89-44,116-70,116-108c0-46-34-70-91-62
		c-49,6-93,44-119,102l-19,40v-84c-1-84-1-84,19-66s23,18,68,2c62-22,96-21,142,4c70,39,90,116,48,179c-14,20-54,50-103,77
		c-44,24-86,51-92,60c-32,42,1,93,60,93c43,0,82-28,112-79l26-46l-5,49c-3,27-6,58-6,70c0,17-2,18-10,6s-15-12-57,3
		C1717.5,4961.3,1683.5,4964.3,1650.5,4950.3z"/>
	<path class="st0" d="M2716.5,4914.3c-90-211-158-352-179-371l-24-23l69,1c58,0,65,2,42,11c-31,11-35,34-17,87l11,31h78h78l17-45
		c20-51,16-72-17-78c-13-2,23-5,79-6l102-1l-22,23c-13,12-60,110-106,217s-85,197-87,199S2727.5,4941.3,2716.5,4914.3z"/>
	<path class="st0" d="M4180.5,4936.3c-181-84-178-346,5-411c68-24,130-19,192,13c32,17,55,36,58,48c3,18,2,18-20-2
		c-83-75-187-71-235,10c-29,49-32,199-6,259c50,113,192,116,242,4l20-42v68c0,62-1,66-18,56c-14-9-29-7-65,5
		C4287.5,4966.3,4240.5,4964.3,4180.5,4936.3z"/>
	<path class="st0" d="M4631.5,4941.3c-49-22-99-77-115-127c-19-58-8-156,24-204c74-112,237-133,336-44c53,48,73,105,68,191
		c-3,54-10,77-32,110C4856.5,4950.3,4726.5,4985.3,4631.5,4941.3z M4797.5,4909.3c35-37,44-79,43-189c-2-151-64-222-157-179
		c-43,20-61,65-65,169c-5,116,8,170,49,204C4711.5,4951.3,4759.5,4949.3,4797.5,4909.3z"/>
	<path class="st0" d="M1934.5,4943.3c13-2,27-16,33-29c11-30,12-344,1-361c-4-7-19-16-32-22c-20-8-9-10,50-9c62,0,69,1,44,9
		c-20,6-34,17-38,31c-8,33-7,318,2,318c4,0,43-81,87-180c43-99,82-177,85-172c4,4,42,90,86,192l79,185l3-174c3-181,0-196-41-204
		c-12-2,30-4,93-5c87,0,107,2,83,9l-33,10v194v194l33,10c26,8,17,9-54,10l-87,1l-47-112c-26-62-54-128-62-147l-15-35l-62,145
		l-62,144l-84,1C1949.5,4947.3,1921.5,4946.3,1934.5,4943.3z"/>
	<path class="st0" d="M3004.5,4939.3l32-10v-194v-194l-32-10c-25-7-6-9,82-9s107,2,83,9l-33,10v89c0,72,3,90,14,90c8,0,46-45,83-100
		l68-99h65c49,0,61,2,47,10c-24,14-139,187-132,199c3,6,12,10,19,10s23,12,37,26c34,36,34,102,0,138c-35,37-79,46-231,45
		C3004.5,4948.3,2979.5,4946.3,3004.5,4939.3z M3241.5,4905.3c19-18,25-35,25-68c0-61-23-88-83-94l-47-6v97v96h40
		C3206.5,4930.3,3223.5,4923.3,3241.5,4905.3z"/>
	<path class="st0" d="M3456.5,4903.3l1-48l15,27c18,35,43,48,88,48h36v-183c0-192-4-210-45-220c-11-3,30-5,90-5c61,0,101,2,90,5
		c-41,10-45,28-45,220v183h36c47,0,73-15,89-53l14-32l1,53v52h-185h-185V4903.3z"/>
	<path class="st0" d="M5014.5,4943.3c13-2,27-16,33-29c11-30,12-344,1-361c-4-7-19-16-32-22c-20-8-9-10,50-9c62,0,69,1,44,9
		c-20,6-34,17-38,31c-8,33-7,318,2,318c4,0,43-81,87-180c43-99,82-177,85-172c4,4,42,90,86,192l79,185l3-174c3-181,0-196-41-204
		c-12-2,30-4,93-5c87,0,107,2,83,9l-33,10v194v194l33,10c26,8,17,9-54,10l-87,1l-47-112c-26-62-54-128-62-147l-15-35l-62,145
		l-62,144l-84,1C5029.5,4947.3,5001.5,4946.3,5014.5,4943.3z"/>
</g>
</svg>
